<svg enable-background="new 0 0 128 128" id="Layer_1" version="1.1" width="128" height="128" viewBox="0 0 128 128" xml:space="preserve" xmlns="http://www.w3.org/2000/svg" xmlns:xlink="http://www.w3.org/1999/xlink">
	<pattern height="7.8" id="New_Pattern_Swatch_1" overflow="visible" patternUnits="userSpaceOnUse" viewBox="0 -7.8 7.8 7.8" width="7.8" x="-1068">
		<g>
			<polygon fill="none" points="0,0 9.8,0 9.8,-9.8 0,-9.8   "/>
			<polygon opacity="0.15" points="9.8,0 0,0 0,-9.8 9.8,-9.8   "/>
		</g>
	</pattern>
	<g>
		<g>
			<rect fill="#29509B" height="13.3" transform="matrix(0.7071 -0.7071 0.7071 0.7071 -26.7578 63.8972)" width="40" x="43.7" y="57.6"/>
			<rect fill="#3288CE" height="40" transform="matrix(0.7071 0.7071 -0.7071 0.7071 61.6909 -25.2624)" width="6.5" x="58.1" y="41.8"/>
			<rect fill="#1E67AF" height="5.9" transform="matrix(0.7071 -0.7071 0.7071 0.7071 -26.7578 63.8972)" width="40" x="43.7" y="61.3"/>
			<g>
				<path d="M98,63.1l-3.3,3.3c-0.9,0.9-2.4,0.9-3.4,0L61.6,36.7c-0.9-0.9-0.9-2.4,0-3.4l3.3-3.3     c0.9-0.9,2.4-0.9,3.4,0L98,59.7C98.9,60.7,98.9,62.2,98,63.1z" fill="#E5E8EC"/>
				<path d="M78.4,53.4l13.4,13.4c0.7,0.7,1.6,0.9,2,0.5l5.1-5.1c0.4-0.4,0.2-1.3-0.5-2L85.1,46.8L78.4,53.4z" fill="#ABB2B9"/>
				<path d="M92,57.1l-3.3,3.3c-0.9,0.9-2.4,0.9-3.4,0L67.6,42.6c-0.9-0.9-0.9-2.4,0-3.4l3.3-3.3     c0.9-0.9,2.4-0.9,3.4,0L92,53.8C93,54.7,93,56.2,92,57.1z" fill="#CED4DF"/>
				<path d="M92,57.1l-3.3,3.3c-0.9,0.9-2.4,0.9-3.4,0L67.6,42.6c-0.9-0.9-0.9-2.4,0-3.4l3.3-3.3     c0.9-0.9,2.4-0.9,3.4,0L92,53.8C93,54.7,93,56.2,92,57.1z" fill="#CED4DF"/>
			</g>
			<path d="M102,53.8l-3.3,3.3c-0.9,0.9-2.4,0.9-3.4,0L70.9,32.6c-0.9-0.9-0.9-2.4,0-3.4l3.3-3.3    c0.9-0.9,2.4-0.9,3.4,0L102,50.4C103,51.3,103,52.8,102,53.8z" fill="#E5E8EC"/>
			<path d="M82.4,44.1l13.4,13.4c0.7,0.7,1.6,0.9,2,0.5l5.1-5.1c0.4-0.4,0.2-1.3-0.5-2L89.1,37.5L82.4,44.1z" fill="#ABB2B9"/>
			<path d="M96.1,47.8l-3.3,3.3c-0.9,0.9-2.4,0.9-3.4,0L76.9,38.6c-0.9-0.9-0.9-2.4,0-3.4l3.3-3.3    c0.9-0.9,2.4-0.9,3.4,0l12.5,12.5C97,45.4,97,46.9,96.1,47.8z" fill="#CED4DF"/>
			<path d="M96.1,47.8l-3.3,3.3c-0.9,0.9-2.4,0.9-3.4,0L76.9,38.6c-0.9-0.9-0.9-2.4,0-3.4l3.3-3.3    c0.9-0.9,2.4-0.9,3.4,0l12.5,12.5C97,45.4,97,46.9,96.1,47.8z" fill="#CED4DF"/>
			<path d="M106,44.5l-3.3,3.3c-0.9,0.9-2.4,0.9-3.4,0L80.3,28.6c-0.9-0.9-0.9-2.4,0-3.4l3.3-3.3    c0.9-0.9,2.4-0.9,3.4,0L106,41.1C107,42,107,43.5,106,44.5z" fill="#E5E8EC"/>
			<path d="M86.4,34.8l13.4,13.4c0.7,0.7,1.6,0.9,2,0.5l5.1-5.1c0.4-0.4,0.2-1.3-0.5-2L93.1,28.1L86.4,34.8z" fill="#ABB2B9"/>
			<path d="M100.1,38.5l-3.3,3.3c-0.9,0.9-2.4,0.9-3.4,0l-7.2-7.2c-0.9-0.9-0.9-2.4,0-3.4l3.3-3.3    c0.9-0.9,2.4-0.9,3.4,0l7.2,7.2C101,36,101,37.6,100.1,38.5z" fill="#CED4DF"/>
			<path d="M100.1,38.5l-3.3,3.3c-0.9,0.9-2.4,0.9-3.4,0l-7.2-7.2c-0.9-0.9-0.9-2.4,0-3.4l3.3-3.3    c0.9-0.9,2.4-0.9,3.4,0l7.2,7.2C101,36,101,37.6,100.1,38.5z" fill="#CED4DF"/>
			<pattern id="SVGID_1_" patternTransform="matrix(0.3209 -0.3209 0.5313 0.5313 -780.8544 -5300.2983)" xlink:href="#New_Pattern_Swatch_1"/>
			<path d="M70.5,29.7L70,30.2c-0.4,0.4-0.2,1.3,0.5,2l25.3,25.3c0.7,0.7,1.6,0.9,2,0.5l0.5-0.5L70.5,29.7z" fill="url(#SVGID_1_)"/>
			<pattern id="SVGID_2_" patternTransform="matrix(0.3209 -0.3209 0.5313 0.5313 -780.8544 -5300.2983)" xlink:href="#New_Pattern_Swatch_1"/>
			<path d="M79.7,25.9l-0.3,0.3c-0.4,0.4-0.2,1.3,0.5,2l20,20c0.7,0.7,1.6,0.9,2,0.5l0.3-0.3L79.7,25.9z" fill="url(#SVGID_2_)"/>
			<g>
				<path d="M63.1,98l3.3-3.3c0.9-0.9,0.9-2.4,0-3.4L36.7,61.6c-0.9-0.9-2.4-0.9-3.4,0L30,64.9     c-0.9,0.9-0.9,2.4,0,3.4L59.7,98C60.7,98.9,62.2,98.9,63.1,98z" fill="#E5E8EC"/>
				<path d="M53.4,78.4l13.4,13.4c0.7,0.7,0.9,1.6,0.5,2l-5.1,5.1c-0.4,0.4-1.3,0.2-2-0.5L46.8,85.1L53.4,78.4z" fill="#ABB2B9"/>
				<path d="M57.1,92l3.3-3.3c0.9-0.9,0.9-2.4,0-3.4L42.6,67.6c-0.9-0.9-2.4-0.9-3.4,0L36,70.9     c-0.9,0.9-0.9,2.4,0,3.4L53.8,92C54.7,93,56.2,93,57.1,92z" fill="#CED4DF"/>
				<path d="M57.1,92l3.3-3.3c0.9-0.9,0.9-2.4,0-3.4L42.6,67.6c-0.9-0.9-2.4-0.9-3.4,0L36,70.9     c-0.9,0.9-0.9,2.4,0,3.4L53.8,92C54.7,93,56.2,93,57.1,92z" fill="#CED4DF"/>
			</g>
			<path d="M53.8,102l3.3-3.3c0.9-0.9,0.9-2.4,0-3.4L32.6,70.9c-0.9-0.9-2.4-0.9-3.4,0L26,74.2    c-0.9,0.9-0.9,2.4,0,3.4L50.4,102C51.3,103,52.8,103,53.8,102z" fill="#E5E8EC"/>
			<path d="M44.1,82.4l13.4,13.4c0.7,0.7,0.9,1.6,0.5,2l-5.1,5.1c-0.4,0.4-1.3,0.2-2-0.5L37.5,89.1L44.1,82.4z" fill="#ABB2B9"/>
			<path d="M47.8,96.1l3.3-3.3c0.9-0.9,0.9-2.4,0-3.4L38.6,76.9c-0.9-0.9-2.4-0.9-3.4,0l-3.3,3.3    c-0.9,0.9-0.9,2.4,0,3.4l12.5,12.5C45.4,97,46.9,97,47.8,96.1z" fill="#CED4DF"/>
			<path d="M47.8,96.1l3.3-3.3c0.9-0.9,0.9-2.4,0-3.4L38.6,76.9c-0.9-0.9-2.4-0.9-3.4,0l-3.3,3.3    c-0.9,0.9-0.9,2.4,0,3.4l12.5,12.5C45.4,97,46.9,97,47.8,96.1z" fill="#CED4DF"/>
			<path d="M44.5,106l3.3-3.3c0.9-0.9,0.9-2.4,0-3.4L28.6,80.3c-0.9-0.9-2.4-0.9-3.4,0L22,83.5C21,84.5,21,86,22,86.9    L41.1,106C42,107,43.5,107,44.5,106z" fill="#E5E8EC"/>
			<path d="M34.8,86.4l13.4,13.4c0.7,0.7,0.9,1.6,0.5,2l-5.1,5.1c-0.4,0.4-1.3,0.2-2-0.5L28.1,93.1L34.8,86.4z" fill="#ABB2B9"/>
			<path d="M38.5,100.1l3.3-3.3c0.9-0.9,0.9-2.4,0-3.4l-7.2-7.2c-0.9-0.9-2.4-0.9-3.4,0l-3.3,3.3    c-0.9,0.9-0.9,2.4,0,3.4l7.2,7.2C36,101,37.6,101,38.5,100.1z" fill="#CED4DF"/>
			<path d="M38.5,100.1l3.3-3.3c0.9-0.9,0.9-2.4,0-3.4l-7.2-7.2c-0.9-0.9-2.4-0.9-3.4,0l-3.3,3.3    c-0.9,0.9-0.9,2.4,0,3.4l7.2,7.2C36,101,37.6,101,38.5,100.1z" fill="#CED4DF"/>
			<pattern id="SVGID_3_" patternTransform="matrix(-0.3209 0.3209 0.5313 0.5313 -4971.8901 -1109.266)" xlink:href="#New_Pattern_Swatch_1"/>
			<path d="M29.7,70.5l0.5-0.5c0.4-0.4,1.3-0.2,2,0.5l25.3,25.3c0.7,0.7,0.9,1.6,0.5,2l-0.5,0.5L29.7,70.5z" fill="url(#SVGID_3_)"/>
			<pattern id="SVGID_4_" patternTransform="matrix(-0.3209 0.3209 0.5313 0.5313 -4971.8901 -1109.266)" xlink:href="#New_Pattern_Swatch_1"/>
			<path d="M25.9,79.7l0.3-0.3c0.4-0.4,1.3-0.2,2,0.5l20,20c0.7,0.7,0.9,1.6,0.5,2l-0.3,0.3L25.9,79.7z" fill="url(#SVGID_4_)"/>
		</g>
	</g>
</svg>